<mxfile host="app.diagrams.net" modified="2023-04-28T23:32:13.297Z" agent="Mozilla/5.0 (Windows NT 10.0; Win64; x64) AppleWebKit/537.36 (KHTML, like Gecko) Chrome/112.0.0.0 Safari/537.36" etag="HvGm1Pys3qQQUai9IJQj" version="21.2.1" type="device">
  <diagram name="PÃ¡gina-1" id="IsiTlhJLwJmGr8eRzl31">
    <mxGraphModel dx="1914" dy="927" grid="1" gridSize="10" guides="1" tooltips="1" connect="1" arrows="1" fold="1" page="1" pageScale="1" pageWidth="1169" pageHeight="827" math="0" shadow="0">
      <root>
        <mxCell id="0" />
        <mxCell id="1" parent="0" />
        <mxCell id="VGC6fZSw1-ySCHKR12fp-166" style="edgeStyle=orthogonalEdgeStyle;rounded=0;orthogonalLoop=1;jettySize=auto;html=1;entryX=0.5;entryY=0;entryDx=0;entryDy=0;" edge="1" parent="1" source="VGC6fZSw1-ySCHKR12fp-1">
          <mxGeometry relative="1" as="geometry">
            <mxPoint x="570" y="200" as="targetPoint" />
          </mxGeometry>
        </mxCell>
        <mxCell id="VGC6fZSw1-ySCHKR12fp-1" value="" style="ellipse;whiteSpace=wrap;html=1;aspect=fixed;" vertex="1" parent="1">
          <mxGeometry x="530" y="60" width="80" height="80" as="geometry" />
        </mxCell>
        <mxCell id="VGC6fZSw1-ySCHKR12fp-183" value="Ingreso sueldo, horas_trabajadas, categoria" style="rounded=0;whiteSpace=wrap;html=1;" vertex="1" parent="1">
          <mxGeometry x="510" y="200" width="120" height="60" as="geometry" />
        </mxCell>
      </root>
    </mxGraphModel>
  </diagram>
</mxfile>
